<?xml version="1.0" encoding="UTF-8"?>
<!-- ThousandEyes product mark (orange eye + slate pupil). Official brand colors. -->
<svg xmlns="http://www.w3.org/2000/svg" viewBox="0 0 80 80" role="img" aria-label="ThousandEyes">
  <path fill="#FB6022" d="M11.8,25.2c-1.1,3.2-1.7,6.6-1.7,10.1c0,3.2,0.5,6.3,1.4,9.2c-2.3,2.2-3.5,4.9-3.5,4.9c-2.9-5.4-2.9-19.4,0-24.2C7.8,25.2,11.8,25.2,11.8,25.2z"/>
  <path fill="#FB6022" d="M15.1,23.6c10.5-4,26-2.3,34.8,4.6l-4.5,6.7C38.1,30.4,25.3,28.5,16.9,32.9L15.1,23.6z"/>
  <path fill="#FB6022" d="M15.1,56.4l1.8-9.3c8.4,4.4,21.2,2.5,28.4-2.2l4.5,6.7C41,58.1,25.5,59.8,15.1,56.4z"/>
  <path fill="#FB6022" d="M50.2,28.4l10.1,11.6L50.2,51.6c0,0,6.5-4.8,6.5-11.6S50.2,28.4,50.2,28.4z"/>
  <path fill="#FB6022" d="M47.2,34.8l8.2,5.2l-8.2,5.2V34.8z"/>
  <circle fill="#3D4551" cx="33.2" cy="40" r="8.6"/>
</svg>
