<svg xmlns="http://www.w3.org/2000/svg" viewBox="0 0 32 32">
  <defs>
    <radialGradient id="f-lens" cx="46%" cy="38%" r="62%">
      <stop offset="0%" stop-color="#ffffff"/>
      <stop offset="40%" stop-color="#02c8ff"/>
      <stop offset="100%" stop-color="#0a60ff"/>
    </radialGradient>
    <linearGradient id="f-silver" x1="5" y1="3" x2="27" y2="29">
      <stop offset="0%" stop-color="#f0f8fc"/>
      <stop offset="100%" stop-color="#2e75b6"/>
    </linearGradient>
    <linearGradient id="f-gold" x1="0" y1="0" x2="32" y2="32">
      <stop offset="0%" stop-color="#f0e0b8"/>
      <stop offset="100%" stop-color="#a07840"/>
    </linearGradient>
    <filter id="f-core"><feGaussianBlur stdDeviation="1.1" result="b"/><feMerge><feMergeNode in="b"/><feMergeNode in="SourceGraphic"/></feMerge></filter>
  </defs>
  <rect width="32" height="32" rx="6" fill="#07182d"/>
  <circle cx="16" cy="16" r="13" stroke="url(#f-gold)" stroke-width="1" fill="none"/>
  <ellipse cx="16" cy="16" rx="10" ry="6.5" stroke="#02c8ff" stroke-width=".5" opacity=".45" transform="rotate(-18 16 16)"/>
  <ellipse cx="16" cy="16" rx="10" ry="6.5" stroke="#ff9000" stroke-width=".5" opacity=".45" transform="rotate(52 16 16)"/>
  <path fill="url(#f-silver)" stroke="url(#f-gold)" stroke-width=".2" d="M16 5 L18.5 12.5 L16 11.5 L13.5 12.5 Z"/>
  <path fill="#2e75b6" d="M16 27 L18.5 19.5 L16 20.5 L13.5 19.5 Z"/>
  <path fill="url(#f-silver)" stroke="url(#f-gold)" stroke-width=".2" d="M5 16 L12.5 13.5 L11.5 16 L12.5 18.5 Z"/>
  <path fill="#2e75b6" d="M27 16 L19.5 13.5 L20.5 16 L19.5 18.5 Z"/>
  <circle cx="16" cy="16" r="4.8" stroke="#88d8f8" stroke-width=".4" fill="none" opacity=".6"/>
  <circle cx="16" cy="16" r="3.2" fill="url(#f-lens)" filter="url(#f-core)"/>
  <circle cx="15" cy="15" r=".9" fill="#fff" opacity=".8"/>
  <circle cx="23.5" cy="7.5" r="1.7" fill="#ff9000"/>
  <circle cx="8.5" cy="24" r="1.7" fill="#70ad47"/>
</svg>
