<svg xmlns="http://www.w3.org/2000/svg" viewBox="0 0 32 32">
  <defs>
    <radialGradient id="s" cx="50%" cy="42%" r="60%">
      <stop offset="0%" stop-color="#7ee8ff"/>
      <stop offset="100%" stop-color="#0a60ff"/>
    </radialGradient>
    <linearGradient id="m" x1="6" y1="4" x2="26" y2="28">
      <stop offset="0%" stop-color="#d4ecf8"/>
      <stop offset="100%" stop-color="#2e75b6"/>
    </linearGradient>
  </defs>
  <rect width="32" height="32" rx="6" fill="#07182d"/>
  <circle cx="16" cy="16" r="12.5" stroke="url(#m)" stroke-width=".7" fill="none" opacity=".8"/>
  <circle cx="16" cy="16" r="8.5" stroke="#58acd8" stroke-width=".6" fill="none" opacity=".5"/>
  <path fill="url(#m)" d="M16 5 L17.8 13 L16 12 L14.2 13 Z"/>
  <path fill="#2e75b6" d="M16 27 L17.8 19 L16 20 L14.2 19 Z"/>
  <path fill="url(#m)" d="M5 16 L13 14.2 L12 16 L13 17.8 Z"/>
  <path fill="#2e75b6" d="M27 16 L19 14.2 L20 16 L19 17.8 Z"/>
  <line x1="16" y1="16" x2="24" y2="8" stroke="#ff9000" stroke-width=".9"/>
  <line x1="16" y1="16" x2="24" y2="24" stroke="#ff9000" stroke-width=".9"/>
  <line x1="16" y1="16" x2="8" y2="24" stroke="#70ad47" stroke-width=".9"/>
  <circle cx="24" cy="8" r="1.8" fill="#ff9000"/>
  <circle cx="24" cy="24" r="1.8" fill="#ff9000"/>
  <circle cx="8" cy="24" r="1.8" fill="#70ad47"/>
  <circle cx="16" cy="16" r="3.2" fill="url(#s)"/>
</svg>
